<svg width="190" height="120" viewBox="0 0 190 120" fill="none" xmlns="http://www.w3.org/2000/svg">
    <path
        d="M76 62.0903L101 44.0903L121 57.0903L88.5 81.5903C85 82.5903 79 80.5903 76 77.0903C73.6 74.2903 75 65.9237 76 62.0903Z"
        fill="url(#paint0_linear_138_398)" />
    <path
        d="M67 63.0903L42 45.0903L21.5 56.5903L54.5 82.5903C58 83.5903 64 81.5903 67 78.0903C69.4 75.2903 68 66.9237 67 63.0903Z"
        fill="url(#paint1_linear_138_398)" />
    <path
        d="M26.5002 28.5905L55.0002 9.09047C60.2001 5.53261 65.5002 10.9414 67.5002 14.0905V27.5905L38.0002 47.5905C28.0002 53.5905 32.8336 64.0905 36.5002 68.5905C32.0002 65.5905 22.9999 58.0903 21.4999 56.0903C20.2999 54.4903 21.1668 42.7571 21.5002 37.0905C21.5002 33.4905 24.8335 29.9238 26.5002 28.5905Z"
        fill="#876CFF" />
    <circle cx="8.5" cy="45.0903" r="8.5" fill="#876CFF" />
    <path fill-rule="evenodd" clip-rule="evenodd"
        d="M143.5 15.5903L144 0.0903256C163.167 -1.07634 198.7 8.59032 187.5 56.5903L176.5 70.0903H142.5C140.5 69.4237 136 67.5903 134 65.5903C132.667 67.0903 129.2 70.0903 126 70.0903H103.5C109 66.257 115.8 55.7903 99 44.5903C82.2 33.3903 77 29.5903 76.5 29.0903V14.5903C78.3333 10.9237 83.8 5.09033 91 11.0903L113 26.0903C115.5 28.257 120.5 33.6903 120.5 38.0903V52.5903H124C122.667 42.257 125.1 21.6903 145.5 22.0903C170.386 22.5783 168.128 42.5912 167.075 51.92C167.049 52.1501 167.024 52.3737 167 52.5903H173C175.833 40.5903 173.9 16.3903 143.5 15.5903ZM153 53.0002C146.667 53.0002 135.7 50.3002 142.5 39.5002C146.833 37.0002 155 36.2002 153 53.0002Z"
        fill="#876CFF" />
    <path
        d="M34.797 104C33.4017 104 32.34 103.731 31.612 103.194C30.884 102.648 30.52 101.842 30.52 100.776C30.52 100.568 30.533 100.351 30.559 100.126C30.585 99.892 30.6153 99.671 30.65 99.463C30.6933 99.2463 30.7323 99.0557 30.767 98.891C30.8017 98.7263 30.8277 98.605 30.845 98.527L32.535 98.852C32.509 98.9907 32.4743 99.1683 32.431 99.385C32.3877 99.6017 32.3487 99.8313 32.314 100.074C32.2793 100.308 32.262 100.533 32.262 100.75C32.262 101.201 32.3573 101.556 32.548 101.816C32.7387 102.067 33.029 102.245 33.419 102.349C33.809 102.444 34.2987 102.492 34.888 102.492H38.359V97.474H40.101V104H34.797ZM33.484 97.955V96.473H35.226V97.955H33.484ZM35.265 97.955V96.473H37.007V97.955H35.265ZM43.7916 104V102.492H45.2736V104H43.7916ZM42.0626 104V94.809H43.7916V104H42.0626ZM45.2736 104V102.492C45.3776 102.492 45.4469 102.561 45.4816 102.7C45.5162 102.83 45.5336 103.012 45.5336 103.246C45.5336 103.471 45.5162 103.653 45.4816 103.792C45.4469 103.931 45.3776 104 45.2736 104ZM45.2725 104V102.492H52.0195L51.2265 103.168V100.776C51.2265 100.308 51.1745 99.944 51.0705 99.684C50.9665 99.4153 50.7845 99.229 50.5245 99.125C50.2731 99.0123 49.9221 98.956 49.4715 98.956C49.1161 98.956 48.7651 98.982 48.4185 99.034C48.0805 99.0773 47.8161 99.138 47.6255 99.216L48.7045 98.202C48.6525 98.4013 48.6005 98.6527 48.5485 98.956C48.5051 99.2593 48.4661 99.5843 48.4315 99.931C48.3968 100.269 48.3795 100.603 48.3795 100.932C48.3795 101.235 48.3925 101.552 48.4185 101.881C48.4531 102.21 48.4878 102.501 48.5225 102.752C48.5658 103.003 48.6005 103.177 48.6265 103.272L46.9755 103.727C46.9408 103.606 46.8975 103.406 46.8455 103.129C46.7935 102.852 46.7458 102.522 46.7025 102.141C46.6678 101.76 46.6505 101.357 46.6505 100.932C46.6505 100.499 46.6721 100.083 46.7155 99.684C46.7588 99.2767 46.8065 98.9127 46.8585 98.592C46.9191 98.2627 46.9755 97.9983 47.0275 97.799C47.2355 97.721 47.5605 97.643 48.0025 97.565C48.4445 97.487 48.9341 97.448 49.4715 97.448C50.2515 97.448 50.8971 97.5563 51.4085 97.773C51.9285 97.9897 52.3141 98.3407 52.5655 98.826C52.8255 99.3113 52.9555 99.9657 52.9555 100.789V104H45.2725ZM45.2725 104C45.1685 104 45.0991 103.931 45.0645 103.792C45.0298 103.653 45.0125 103.471 45.0125 103.246C45.0125 103.012 45.0298 102.83 45.0645 102.7C45.0991 102.561 45.1685 102.492 45.2725 102.492V104ZM60.5492 104V102.492H61.9142V104H60.5492ZM57.0392 107.224C56.7185 107.224 56.3805 107.198 56.0252 107.146C55.6785 107.103 55.3059 107.042 54.9072 106.964L55.1672 105.573C55.6005 105.625 55.9689 105.664 56.2722 105.69C56.5755 105.716 56.8312 105.729 57.0392 105.729C57.6632 105.729 58.1139 105.616 58.3912 105.391C58.6685 105.166 58.8072 104.828 58.8072 104.377V98.67L59.2362 98.982H57.6112C57.2559 98.982 56.9699 99.0253 56.7532 99.112C56.5365 99.19 56.3762 99.359 56.2722 99.619C56.1769 99.8703 56.1292 100.256 56.1292 100.776C56.1292 101.27 56.1725 101.643 56.2592 101.894C56.3545 102.137 56.5105 102.297 56.7272 102.375C56.9439 102.453 57.2385 102.492 57.6112 102.492H58.8072V104H57.6112C56.8745 104 56.2679 103.883 55.7912 103.649C55.3145 103.415 54.9592 103.06 54.7252 102.583C54.4999 102.106 54.3872 101.504 54.3872 100.776C54.3872 100.048 54.4999 99.4413 54.7252 98.956C54.9592 98.462 55.3145 98.0937 55.7912 97.851C56.2679 97.5997 56.8745 97.474 57.6112 97.474H60.5492V104.377C60.5492 104.966 60.4019 105.473 60.1072 105.898C59.8212 106.331 59.4139 106.661 58.8852 106.886C58.3652 107.111 57.7499 107.224 57.0392 107.224ZM61.9142 104V102.492C62.0182 102.492 62.0875 102.561 62.1222 102.7C62.1569 102.83 62.1742 103.012 62.1742 103.246C62.1742 103.471 62.1569 103.653 62.1222 103.792C62.0875 103.931 62.0182 104 61.9142 104ZM65.127 104V102.492H66.492V104H65.127ZM63.385 104V94.809H65.127V104H63.385ZM61.916 104V102.492H63.385V104H61.916ZM61.916 104C61.812 104 61.7427 103.931 61.708 103.792C61.6733 103.653 61.656 103.471 61.656 103.246C61.656 103.012 61.6733 102.83 61.708 102.7C61.7427 102.561 61.812 102.492 61.916 102.492V104ZM66.492 104V102.492C66.596 102.492 66.6653 102.561 66.7 102.7C66.7347 102.83 66.752 103.012 66.752 103.246C66.752 103.471 66.7347 103.653 66.7 103.792C66.6653 103.931 66.596 104 66.492 104ZM66.4863 104V102.492H69.2423C69.615 102.492 69.9747 102.423 70.3213 102.284C70.668 102.137 70.9843 101.946 71.2703 101.712C71.565 101.469 71.8207 101.205 72.0373 100.919C72.2627 100.624 72.436 100.325 72.5573 100.022C72.6873 99.7187 72.7523 99.4327 72.7523 99.164V98.332L73.5843 99.71C73.1337 99.4673 72.6743 99.2853 72.2063 99.164C71.7383 99.0427 71.292 98.982 70.8673 98.982C70.4513 98.982 70.005 99.0427 69.5283 99.164C69.0603 99.2853 68.6053 99.4673 68.1633 99.71L68.9953 98.332V99.164C68.9953 99.4327 69.056 99.7187 69.1773 100.022C69.3073 100.325 69.4807 100.624 69.6973 100.919C69.914 101.205 70.1697 101.469 70.4643 101.712C70.759 101.946 71.0797 102.137 71.4263 102.284C71.773 102.423 72.1283 102.492 72.4923 102.492H75.1703V104H73.0383C72.3623 104 71.7297 103.892 71.1403 103.675C70.551 103.458 70.018 103.172 69.5413 102.817C69.0647 102.453 68.653 102.059 68.3063 101.634C67.9683 101.201 67.7083 100.772 67.5263 100.347C67.3443 99.9137 67.2533 99.5193 67.2533 99.164V98.423C67.626 98.215 68.0203 98.0417 68.4363 97.903C68.861 97.7643 69.2813 97.6603 69.6973 97.591C70.122 97.513 70.512 97.474 70.8673 97.474C71.2313 97.474 71.6213 97.513 72.0373 97.591C72.4533 97.6603 72.8693 97.7643 73.2853 97.903C73.71 98.0417 74.1087 98.215 74.4813 98.423V99.164C74.4813 99.5193 74.3903 99.9137 74.2083 100.347C74.0263 100.772 73.762 101.201 73.4153 101.634C73.0773 102.059 72.67 102.453 72.1933 102.817C71.7167 103.172 71.1837 103.458 70.5943 103.675C70.005 103.892 69.3723 104 68.6963 104H66.4863ZM66.4863 104C66.3823 104 66.313 103.931 66.2783 103.792C66.2437 103.653 66.2263 103.471 66.2263 103.246C66.2263 103.012 66.2437 102.83 66.2783 102.7C66.313 102.561 66.3823 102.492 66.4863 102.492V104ZM75.1703 104V102.492C75.2743 102.492 75.3437 102.561 75.3783 102.7C75.413 102.83 75.4303 103.012 75.4303 103.246C75.4303 103.471 75.413 103.653 75.3783 103.792C75.3437 103.931 75.2743 104 75.1703 104ZM82.8529 104V102.492H84.2309V104H82.8529ZM75.1699 104V102.492H81.9169L81.1239 103.168V100.776C81.1239 100.308 81.0719 99.944 80.9679 99.684C80.8639 99.4153 80.6819 99.229 80.4219 99.125C80.1706 99.0123 79.8196 98.956 79.3689 98.956C79.0136 98.956 78.6626 98.982 78.3159 99.034C77.9779 99.0773 77.7136 99.138 77.5229 99.216L78.6019 98.202C78.5499 98.4013 78.4979 98.6527 78.4459 98.956C78.4026 99.2593 78.3636 99.5843 78.3289 99.931C78.2943 100.269 78.2769 100.603 78.2769 100.932C78.2769 101.235 78.2899 101.552 78.3159 101.881C78.3506 102.21 78.3853 102.501 78.4199 102.752C78.4633 103.003 78.4979 103.177 78.5239 103.272L76.8729 103.727C76.8383 103.606 76.7949 103.406 76.7429 103.129C76.6909 102.852 76.6433 102.522 76.5999 102.141C76.5653 101.76 76.5479 101.357 76.5479 100.932C76.5479 100.499 76.5696 100.083 76.6129 99.684C76.6563 99.2767 76.7039 98.9127 76.7559 98.592C76.8166 98.2627 76.8729 97.9983 76.9249 97.799C77.1329 97.721 77.4579 97.643 77.8999 97.565C78.3419 97.487 78.8316 97.448 79.3689 97.448C80.1489 97.448 80.7946 97.5563 81.3059 97.773C81.8259 97.9897 82.2116 98.3407 82.4629 98.826C82.7229 99.3113 82.8529 99.9657 82.8529 100.789V104H75.1699ZM75.1699 104C75.0659 104 74.9966 103.931 74.9619 103.792C74.9273 103.653 74.9099 103.471 74.9099 103.246C74.9099 103.012 74.9273 102.83 74.9619 102.7C74.9966 102.561 75.0659 102.492 75.1699 102.492V104ZM84.2309 104V102.492C84.3349 102.492 84.4043 102.561 84.4389 102.7C84.4736 102.83 84.4909 103.012 84.4909 103.246C84.4909 103.471 84.4736 103.653 84.4389 103.792C84.4043 103.931 84.3349 104 84.2309 104ZM85.7034 104V94.809H87.4454V104H85.7034ZM84.2344 104V102.492H85.7034V104H84.2344ZM84.2344 104C84.1304 104 84.061 103.931 84.0264 103.792C83.9917 103.653 83.9744 103.471 83.9744 103.246C83.9744 103.012 83.9917 102.83 84.0264 102.7C84.061 102.561 84.1304 102.492 84.2344 102.492V104ZM89.5304 104V94.809H91.2594V104H89.5304ZM103.002 104V102.492H104.38V104H103.002ZM96.0986 108.316C96.0206 107.848 95.9469 107.393 95.8776 106.951C95.8169 106.509 95.7866 106.119 95.7866 105.781C95.7866 105.105 95.9166 104.52 96.1766 104.026C96.4366 103.541 96.8049 103.164 97.2816 102.895C97.7583 102.626 98.3216 102.492 98.9716 102.492C99.1016 102.492 99.2619 102.492 99.4526 102.492C99.6519 102.492 99.8816 102.492 100.142 102.492C100.402 102.492 100.692 102.492 101.013 102.492C101.333 102.492 101.684 102.492 102.066 102.492L101.273 103.246V100.789C101.273 100.338 101.221 99.983 101.117 99.723C101.021 99.4543 100.844 99.2637 100.584 99.151C100.332 99.0383 99.9639 98.982 99.4786 98.982C99.1493 98.982 98.8113 99.008 98.4646 99.06C98.1266 99.1033 97.8579 99.164 97.6586 99.242L98.7506 98.228C98.6899 98.436 98.6336 98.696 98.5816 99.008C98.5383 99.32 98.5036 99.645 98.4776 99.983C98.4516 100.312 98.4386 100.624 98.4386 100.919C98.4386 101.24 98.4516 101.565 98.4776 101.894C98.5036 102.215 98.5339 102.501 98.5686 102.752C98.6119 103.003 98.6466 103.177 98.6726 103.272L97.0216 103.727C96.9783 103.606 96.9306 103.406 96.8786 103.129C96.8353 102.852 96.7919 102.527 96.7486 102.154C96.7139 101.773 96.6966 101.37 96.6966 100.945C96.6966 100.52 96.7139 100.109 96.7486 99.71C96.7919 99.3027 96.8439 98.9387 96.9046 98.618C96.9653 98.2887 97.0216 98.0243 97.0736 97.825C97.2989 97.7383 97.6326 97.6603 98.0746 97.591C98.5166 97.513 98.9933 97.474 99.5046 97.474C100.068 97.474 100.549 97.5303 100.948 97.643C101.355 97.747 101.689 97.8987 101.949 98.098C102.217 98.2973 102.43 98.5357 102.586 98.813C102.742 99.0817 102.85 99.385 102.911 99.723C102.971 100.061 103.002 100.421 103.002 100.802V104C102.62 104 102.222 104 101.806 104C101.398 104 101 104 100.61 104C100.228 104 99.8903 104 99.5956 104C99.3096 104 99.1016 104 98.9716 104C98.8329 104 98.6813 104.017 98.5166 104.052C98.3519 104.095 98.1916 104.173 98.0356 104.286C97.8883 104.407 97.7669 104.585 97.6716 104.819C97.5763 105.062 97.5286 105.382 97.5286 105.781C97.5286 106.093 97.5546 106.457 97.6066 106.873C97.6673 107.289 97.7366 107.77 97.8146 108.316H96.0986ZM104.38 104V102.492C104.475 102.492 104.54 102.561 104.575 102.7C104.618 102.83 104.64 103.012 104.64 103.246C104.64 103.471 104.618 103.653 104.575 103.792C104.54 103.931 104.475 104 104.38 104ZM113.443 104V102.492H114.808V104H113.443ZM104.382 104V102.492H113.456L111.987 103.766V101.036C111.987 100.542 111.922 100.148 111.792 99.853C111.662 99.5497 111.471 99.3287 111.22 99.19C110.977 99.0513 110.683 98.982 110.336 98.982C109.963 98.982 109.612 99.0557 109.283 99.203C108.954 99.3503 108.642 99.541 108.347 99.775C108.061 100.009 107.797 100.26 107.554 100.529C107.311 100.798 107.095 101.058 106.904 101.309C106.713 101.552 106.549 101.76 106.41 101.933L106.02 100.672C106.375 100.221 106.705 99.801 107.008 99.411C107.32 99.021 107.645 98.683 107.983 98.397C108.321 98.1023 108.694 97.877 109.101 97.721C109.508 97.5563 109.981 97.474 110.518 97.474C111.099 97.474 111.588 97.5737 111.987 97.773C112.394 97.9637 112.728 98.228 112.988 98.566C113.248 98.904 113.434 99.2853 113.547 99.71C113.66 100.135 113.716 100.577 113.716 101.036V104H104.382ZM105.279 102.492V94.809H107.008V102.492H105.279ZM104.382 104C104.278 104 104.209 103.931 104.174 103.792C104.139 103.653 104.122 103.471 104.122 103.246C104.122 103.012 104.139 102.83 104.174 102.7C104.209 102.561 104.278 102.492 104.382 102.492V104ZM114.808 104V102.492C114.912 102.492 114.981 102.561 115.016 102.7C115.051 102.83 115.068 103.012 115.068 103.246C115.068 103.471 115.051 103.653 115.016 103.792C114.981 103.931 114.912 104 114.808 104ZM109.036 96.278V94.796H110.778V96.278H109.036ZM114.805 104V102.492H117.184L116.17 103.337V97.474H117.912V104H114.805ZM114.805 104C114.701 104 114.631 103.931 114.597 103.792C114.562 103.653 114.545 103.471 114.545 103.246C114.545 103.012 114.562 102.83 114.597 102.7C114.631 102.561 114.701 102.492 114.805 102.492V104ZM116.17 96.278V94.796H117.912V96.278H116.17ZM125.43 104C124.693 104 124.086 103.883 123.61 103.649C123.133 103.415 122.778 103.06 122.544 102.583C122.318 102.106 122.206 101.504 122.206 100.776C122.206 100.048 122.318 99.4413 122.544 98.956C122.778 98.462 123.133 98.0937 123.61 97.851C124.086 97.5997 124.693 97.474 125.43 97.474H128.368V103.181H126.626V98.605L127.055 98.982H125.43C125.074 98.982 124.788 99.0253 124.572 99.112C124.355 99.19 124.195 99.359 124.091 99.619C123.995 99.8703 123.948 100.256 123.948 100.776C123.948 101.27 123.991 101.643 124.078 101.894C124.173 102.137 124.329 102.297 124.546 102.375C124.762 102.453 125.057 102.492 125.43 102.492H129.733V104H125.43ZM129.733 104V102.492C129.837 102.492 129.906 102.561 129.941 102.7C129.975 102.83 129.993 103.012 129.993 103.246C129.993 103.471 129.975 103.653 129.941 103.792C129.906 103.931 129.837 104 129.733 104ZM133.53 104V102.492H135.155V104H133.53ZM135.155 104V102.492C135.259 102.492 135.329 102.561 135.363 102.7C135.398 102.83 135.415 103.012 135.415 103.246C135.415 103.471 135.398 103.653 135.363 103.792C135.329 103.931 135.259 104 135.155 104ZM129.734 104V102.492H132.815L131.801 103.337V97.474H133.53V104H129.734ZM129.734 104C129.63 104 129.561 103.931 129.526 103.792C129.492 103.653 129.474 103.471 129.474 103.246C129.474 103.012 129.492 102.83 129.526 102.7C129.561 102.561 129.63 102.492 129.734 102.492V104ZM130.254 106.704V105.222H131.996V106.704H130.254ZM132.035 106.704V105.222H133.777V106.704H132.035ZM138.262 104V102.492H139.627V104H138.262ZM135.155 104V102.492H137.534L136.52 103.337V97.474H138.262V104H135.155ZM135.155 104C135.051 104 134.982 103.931 134.947 103.792C134.913 103.653 134.895 103.471 134.895 103.246C134.895 103.012 134.913 102.83 134.947 102.7C134.982 102.561 135.051 102.492 135.155 102.492V104ZM139.627 104V102.492C139.731 102.492 139.801 102.561 139.835 102.7C139.87 102.83 139.887 103.012 139.887 103.246C139.887 103.471 139.87 103.653 139.835 103.792C139.801 103.931 139.731 104 139.627 104ZM136.52 96.278V94.796H138.262V96.278H136.52ZM146.904 104V102.492H148.269V104H146.904ZM139.624 104V102.492H145.695L145.162 102.947V98.605L145.604 98.982H143.966C143.585 98.982 143.286 99.0297 143.069 99.125C142.852 99.2203 142.701 99.398 142.614 99.658C142.527 99.9093 142.484 100.269 142.484 100.737C142.484 101.248 142.527 101.63 142.614 101.881C142.701 102.124 142.852 102.288 143.069 102.375C143.286 102.453 143.585 102.492 143.966 102.492V103.844C143.229 103.844 142.623 103.74 142.146 103.532C141.669 103.324 141.314 102.995 141.08 102.544C140.855 102.085 140.742 101.482 140.742 100.737C140.742 100.026 140.855 99.4283 141.08 98.943C141.314 98.4577 141.669 98.0937 142.146 97.851C142.623 97.5997 143.229 97.474 143.966 97.474H146.904V104H139.624ZM139.624 104C139.52 104 139.451 103.931 139.416 103.792C139.381 103.653 139.364 103.471 139.364 103.246C139.364 103.012 139.381 102.83 139.416 102.7C139.451 102.561 139.52 102.492 139.624 102.492V104ZM148.269 104V102.492C148.373 102.492 148.442 102.561 148.477 102.7C148.512 102.83 148.529 103.012 148.529 103.246C148.529 103.471 148.512 103.653 148.477 103.792C148.442 103.931 148.373 104 148.269 104ZM142.64 96.694V95.212H144.382V96.694H142.64ZM144.421 96.694V95.212H146.163V96.694H144.421ZM152.066 104V102.492H153.691V104H152.066ZM153.691 104V102.492C153.795 102.492 153.864 102.561 153.899 102.7C153.933 102.83 153.951 103.012 153.951 103.246C153.951 103.471 153.933 103.653 153.899 103.792C153.864 103.931 153.795 104 153.691 104ZM148.27 104V102.492H151.351L150.337 103.337V97.474H152.066V104H148.27ZM148.27 104C148.166 104 148.096 103.931 148.062 103.792C148.027 103.653 148.01 103.471 148.01 103.246C148.01 103.012 148.027 102.83 148.062 102.7C148.096 102.561 148.166 102.492 148.27 102.492V104ZM148.79 96.694V95.212H150.532V96.694H148.79ZM150.571 96.694V95.212H152.313V96.694H150.571ZM155.159 104V94.809H156.901V104H155.159ZM153.69 104V102.492H155.159V104H153.69ZM153.69 104C153.586 104 153.517 103.931 153.482 103.792C153.448 103.653 153.43 103.471 153.43 103.246C153.43 103.012 153.448 102.83 153.482 102.7C153.517 102.561 153.586 102.492 153.69 102.492V104ZM165.444 104C164.049 104 162.987 103.731 162.259 103.194C161.531 102.648 161.167 101.842 161.167 100.776C161.167 100.568 161.18 100.351 161.206 100.126C161.232 99.892 161.263 99.671 161.297 99.463C161.341 99.2463 161.38 99.0557 161.414 98.891C161.449 98.7263 161.475 98.605 161.492 98.527L163.182 98.852C163.156 98.9907 163.122 99.1683 163.078 99.385C163.035 99.6017 162.996 99.8313 162.961 100.074C162.927 100.308 162.909 100.533 162.909 100.75C162.909 101.201 163.005 101.556 163.195 101.816C163.386 102.067 163.676 102.245 164.066 102.349C164.456 102.444 164.946 102.492 165.535 102.492H169.006V97.474H170.748V104H165.444ZM165.184 106.769V105.287H166.926V106.769H165.184ZM177.338 104V102.492H178.703V104H177.338ZM172.06 104V102.492H176.779L175.596 103.519V101.335C175.596 100.72 175.531 100.243 175.401 99.905C175.28 99.567 175.072 99.3287 174.777 99.19C174.491 99.0513 174.097 98.982 173.594 98.982H172.541V97.474H173.594C174.391 97.474 175.067 97.604 175.622 97.864C176.185 98.124 176.61 98.54 176.896 99.112C177.191 99.6753 177.338 100.416 177.338 101.335V104H172.06ZM178.703 104V102.492C178.807 102.492 178.876 102.561 178.911 102.7C178.946 102.83 178.963 103.012 178.963 103.246C178.963 103.471 178.946 103.653 178.911 103.792C178.876 103.931 178.807 104 178.703 104ZM178.7 104V102.492H187.722L186.513 103.467V101.244C186.513 100.499 186.414 99.9007 186.214 99.45C186.024 98.9993 185.716 98.6743 185.291 98.475C184.875 98.267 184.334 98.163 183.666 98.163C183.346 98.163 182.995 98.176 182.613 98.202C182.232 98.2193 181.851 98.2453 181.469 98.28C181.097 98.306 180.759 98.3363 180.455 98.371L180.273 97.201C180.568 97.123 180.91 97.0407 181.3 96.954C181.69 96.8673 182.098 96.7937 182.522 96.733C182.956 96.6723 183.376 96.642 183.783 96.642C184.347 96.642 184.893 96.72 185.421 96.876C185.959 97.0233 186.44 97.2747 186.864 97.63C187.289 97.9767 187.627 98.4447 187.878 99.034C188.13 99.6233 188.255 100.36 188.255 101.244V104H178.7ZM180.039 102.492V101.842C180.039 101.426 180.143 101.04 180.351 100.685C180.568 100.321 180.863 100.035 181.235 99.827C181.608 99.6103 182.024 99.502 182.483 99.502C182.943 99.502 183.354 99.6103 183.718 99.827C184.082 100.035 184.368 100.317 184.576 100.672C184.793 101.027 184.901 101.417 184.901 101.842V102.492H183.523V101.842C183.523 101.625 183.476 101.435 183.38 101.27C183.285 101.097 183.159 100.958 183.003 100.854C182.847 100.75 182.674 100.698 182.483 100.698C182.293 100.698 182.115 100.75 181.95 100.854C181.794 100.958 181.669 101.097 181.573 101.27C181.478 101.435 181.43 101.625 181.43 101.842V102.492H180.039ZM178.7 104C178.596 104 178.527 103.931 178.492 103.792C178.458 103.653 178.44 103.471 178.44 103.246C178.44 103.012 178.458 102.83 178.492 102.7C178.527 102.561 178.596 102.492 178.7 102.492V104Z"
        fill="black" />
    <path
        d="M34.6885 118V112.135H35.4365V114.727H38.2925V112.135H39.0405V118H38.2925V115.382H35.4365V118H34.6885ZM41.2745 118.085C40.8722 118.085 40.5662 117.975 40.3565 117.753C40.1525 117.532 40.0505 117.207 40.0505 116.776C40.0505 116.493 40.0987 116.263 40.195 116.087C40.297 115.912 40.4472 115.779 40.6455 115.688C40.8495 115.597 41.096 115.541 41.385 115.518L42.66 115.39V115.042C42.66 114.764 42.5977 114.569 42.473 114.455C42.3484 114.342 42.167 114.285 41.929 114.285C41.7817 114.285 41.6089 114.291 41.4105 114.302C41.2179 114.314 41.0224 114.328 40.824 114.345C40.6314 114.362 40.4614 114.379 40.314 114.396L40.28 113.852C40.416 113.824 40.5804 113.795 40.773 113.767C40.9714 113.739 41.1754 113.716 41.385 113.699C41.6004 113.676 41.7959 113.665 41.9715 113.665C42.3002 113.665 42.5694 113.713 42.779 113.809C42.9887 113.906 43.1417 114.056 43.238 114.26C43.34 114.458 43.391 114.716 43.391 115.033V117.158C43.4024 117.277 43.4505 117.365 43.5355 117.422C43.6205 117.473 43.7282 117.507 43.8585 117.524L43.833 118.085C43.7084 118.085 43.5922 118.077 43.4845 118.06C43.3769 118.048 43.2805 118.031 43.1955 118.009C43.1105 117.98 43.034 117.946 42.966 117.906C42.898 117.861 42.8329 117.81 42.7705 117.753C42.6629 117.799 42.5269 117.847 42.3625 117.898C42.1982 117.949 42.0225 117.991 41.8355 118.026C41.6485 118.065 41.4615 118.085 41.2745 118.085ZM41.402 117.49C41.5494 117.49 41.7024 117.479 41.861 117.456C42.0197 117.428 42.1699 117.394 42.3115 117.354C42.4532 117.314 42.5694 117.277 42.66 117.243V115.917L41.4785 116.028C41.2349 116.051 41.0592 116.124 40.9515 116.249C40.8439 116.368 40.79 116.538 40.79 116.759C40.79 116.986 40.841 117.164 40.943 117.294C41.0507 117.425 41.2037 117.49 41.402 117.49ZM45.9655 118.085C45.7899 118.085 45.6255 118.065 45.4725 118.026C45.3195 117.991 45.1779 117.929 45.0475 117.838C44.9229 117.742 44.8124 117.612 44.716 117.447C44.6197 117.283 44.546 117.076 44.495 116.827C44.444 116.572 44.4185 116.266 44.4185 115.909C44.4185 115.405 44.478 114.988 44.597 114.659C44.716 114.325 44.9059 114.076 45.1665 113.911C45.4329 113.747 45.7814 113.665 46.212 113.665C46.3707 113.665 46.5492 113.676 46.7475 113.699C46.9515 113.722 47.1102 113.744 47.2235 113.767V111.914H47.946V118H47.232V117.728C47.1414 117.773 47.0252 117.824 46.8835 117.881C46.7419 117.938 46.5917 117.986 46.433 118.026C46.2744 118.065 46.1185 118.085 45.9655 118.085ZM46.076 117.439C46.2177 117.439 46.3594 117.425 46.501 117.396C46.6484 117.362 46.7844 117.323 46.909 117.277C47.0337 117.232 47.1385 117.19 47.2235 117.15V114.379C47.1555 114.368 47.0649 114.356 46.9515 114.345C46.8382 114.328 46.7192 114.317 46.5945 114.311C46.4755 114.3 46.365 114.294 46.263 114.294C45.9854 114.294 45.7672 114.353 45.6085 114.472C45.4499 114.591 45.3365 114.773 45.2685 115.016C45.2005 115.254 45.1665 115.552 45.1665 115.909C45.1665 116.232 45.1892 116.495 45.2345 116.699C45.2855 116.898 45.3535 117.051 45.4385 117.158C45.5235 117.266 45.6199 117.34 45.7275 117.379C45.8409 117.419 45.957 117.439 46.076 117.439ZM50.09 118.085C49.6876 118.085 49.3816 117.975 49.172 117.753C48.968 117.532 48.866 117.207 48.866 116.776C48.866 116.493 48.9141 116.263 49.0105 116.087C49.1125 115.912 49.2626 115.779 49.461 115.688C49.665 115.597 49.9115 115.541 50.2005 115.518L51.4755 115.39V115.042C51.4755 114.764 51.4131 114.569 51.2885 114.455C51.1638 114.342 50.9825 114.285 50.7445 114.285C50.5971 114.285 50.4243 114.291 50.226 114.302C50.0333 114.314 49.8378 114.328 49.6395 114.345C49.4468 114.362 49.2768 114.379 49.1295 114.396L49.0955 113.852C49.2315 113.824 49.3958 113.795 49.5885 113.767C49.7868 113.739 49.9908 113.716 50.2005 113.699C50.4158 113.676 50.6113 113.665 50.787 113.665C51.1156 113.665 51.3848 113.713 51.5945 113.809C51.8041 113.906 51.9571 114.056 52.0535 114.26C52.1555 114.458 52.2065 114.716 52.2065 115.033V117.158C52.2178 117.277 52.266 117.365 52.351 117.422C52.436 117.473 52.5436 117.507 52.674 117.524L52.6485 118.085C52.5238 118.085 52.4076 118.077 52.3 118.06C52.1923 118.048 52.096 118.031 52.011 118.009C51.926 117.98 51.8495 117.946 51.7815 117.906C51.7135 117.861 51.6483 117.81 51.586 117.753C51.4783 117.799 51.3423 117.847 51.178 117.898C51.0136 117.949 50.838 117.991 50.651 118.026C50.464 118.065 50.277 118.085 50.09 118.085ZM50.2175 117.49C50.3648 117.49 50.5178 117.479 50.6765 117.456C50.8351 117.428 50.9853 117.394 51.127 117.354C51.2686 117.314 51.3848 117.277 51.4755 117.243V115.917L50.294 116.028C50.0503 116.051 49.8746 116.124 49.767 116.249C49.6593 116.368 49.6055 116.538 49.6055 116.759C49.6055 116.986 49.6565 117.164 49.7585 117.294C49.8661 117.425 50.0191 117.49 50.2175 117.49ZM54.8915 118.085C54.7668 118.085 54.6138 118.079 54.4325 118.068C54.2568 118.062 54.0783 118.051 53.897 118.034C53.7156 118.017 53.557 118.003 53.421 117.991V111.914H54.1435V113.945C54.2795 113.883 54.4608 113.821 54.6875 113.758C54.9198 113.696 55.1408 113.665 55.3505 113.665C55.7415 113.665 56.0503 113.739 56.277 113.886C56.5093 114.028 56.6736 114.257 56.77 114.574C56.872 114.892 56.923 115.303 56.923 115.807C56.923 116.374 56.8606 116.824 56.736 117.158C56.617 117.487 56.4101 117.725 56.1155 117.872C55.8208 118.014 55.4128 118.085 54.8915 118.085ZM54.883 117.439C55.257 117.439 55.5346 117.382 55.716 117.269C55.8973 117.156 56.0191 116.98 56.0815 116.742C56.1438 116.498 56.175 116.187 56.175 115.807C56.175 115.456 56.1466 115.169 56.09 114.948C56.039 114.727 55.9455 114.566 55.8095 114.464C55.6735 114.356 55.4893 114.302 55.257 114.302C55.0586 114.302 54.8546 114.331 54.645 114.387C54.441 114.438 54.2738 114.487 54.1435 114.532V117.396C54.2625 117.408 54.3956 117.419 54.543 117.43C54.696 117.436 54.8093 117.439 54.883 117.439ZM59.9662 118V114.37H59.4477V113.75H59.9662V113.393C59.9662 112.985 60.003 112.668 60.0767 112.441C60.156 112.214 60.2807 112.056 60.4507 111.965C60.6207 111.874 60.8473 111.829 61.1307 111.829C61.2043 111.829 61.3007 111.832 61.4197 111.837C61.5387 111.843 61.6548 111.852 61.7682 111.863C61.8872 111.874 61.9693 111.886 62.0147 111.897L62.0062 112.492C61.9042 112.486 61.7823 112.483 61.6407 112.483C61.5047 112.478 61.3913 112.475 61.3007 112.475C61.1477 112.475 61.0258 112.5 60.9352 112.551C60.8502 112.602 60.7878 112.696 60.7482 112.832C60.7142 112.968 60.6972 113.155 60.6972 113.393V113.75H61.8957V114.37H60.6972V118H59.9662ZM64.2095 118.085C63.7335 118.085 63.3595 118.003 63.0875 117.838C62.8212 117.674 62.6342 117.428 62.5265 117.099C62.4189 116.765 62.365 116.34 62.365 115.824C62.365 115.337 62.4245 114.934 62.5435 114.617C62.6625 114.294 62.858 114.056 63.13 113.903C63.402 113.744 63.7619 113.665 64.2095 113.665C64.6629 113.665 65.0255 113.744 65.2975 113.903C65.5695 114.056 65.765 114.294 65.884 114.617C66.003 114.934 66.0625 115.337 66.0625 115.824C66.0625 116.34 66.0059 116.765 65.8925 117.099C65.7849 117.428 65.5979 117.674 65.3315 117.838C65.0652 118.003 64.6912 118.085 64.2095 118.085ZM64.2095 117.464C64.5269 117.464 64.7649 117.411 64.9235 117.303C65.0822 117.19 65.187 117.011 65.238 116.767C65.289 116.524 65.3145 116.209 65.3145 115.824C65.3145 115.444 65.2805 115.141 65.2125 114.914C65.1502 114.688 65.0397 114.526 64.881 114.43C64.7224 114.334 64.4985 114.285 64.2095 114.285C63.9262 114.285 63.7024 114.334 63.538 114.43C63.3794 114.526 63.266 114.688 63.198 114.914C63.1357 115.141 63.1045 115.444 63.1045 115.824C63.1045 116.209 63.13 116.524 63.181 116.767C63.232 117.011 63.3369 117.19 63.4955 117.303C63.6542 117.411 63.8922 117.464 64.2095 117.464ZM67.0677 118V113.75H67.7817V114.311C67.8893 114.237 68.0225 114.158 68.1812 114.073C68.3455 113.982 68.524 113.897 68.7167 113.818C68.9093 113.739 69.102 113.685 69.2947 113.656V114.379C69.1077 114.419 68.9178 114.47 68.7252 114.532C68.5325 114.594 68.354 114.662 68.1897 114.736C68.0253 114.81 67.8893 114.875 67.7817 114.931V118H67.0677ZM71.9839 118V112.135H72.7319V118H71.9839ZM74.0154 118V113.75H74.7294V114.039C74.8257 113.982 74.9447 113.926 75.0864 113.869C75.2337 113.812 75.3867 113.764 75.5454 113.724C75.7097 113.685 75.8656 113.665 76.0129 113.665C76.4039 113.665 76.7042 113.736 76.9139 113.877C77.1236 114.013 77.2681 114.234 77.3474 114.54C77.4267 114.846 77.4664 115.252 77.4664 115.756V118H76.7439V115.781C76.7439 115.424 76.7212 115.138 76.6759 114.923C76.6362 114.708 76.5541 114.552 76.4294 114.455C76.3104 114.359 76.1234 114.311 75.8684 114.311C75.7324 114.311 75.5907 114.328 75.4434 114.362C75.3017 114.39 75.1686 114.427 75.0439 114.472C74.9192 114.518 74.8144 114.563 74.7294 114.608V118H74.0154ZM78.7757 118V114.37H78.2572V113.75H78.7757V113.393C78.7757 112.985 78.8126 112.668 78.8862 112.441C78.9656 112.214 79.0902 112.056 79.2602 111.965C79.4302 111.874 79.6569 111.829 79.9402 111.829C80.0139 111.829 80.1102 111.832 80.2292 111.837C80.3482 111.843 80.4644 111.852 80.5777 111.863C80.6967 111.874 80.7789 111.886 80.8242 111.897L80.8157 112.492C80.7137 112.486 80.5919 112.483 80.4502 112.483C80.3142 112.478 80.2009 112.475 80.1102 112.475C79.9572 112.475 79.8354 112.5 79.7447 112.551C79.6597 112.602 79.5974 112.696 79.5577 112.832C79.5237 112.968 79.5067 113.155 79.5067 113.393V113.75H80.7052V114.37H79.5067V118H78.7757ZM83.0191 118.085C82.5431 118.085 82.1691 118.003 81.8971 117.838C81.6308 117.674 81.4438 117.428 81.3361 117.099C81.2284 116.765 81.1746 116.34 81.1746 115.824C81.1746 115.337 81.2341 114.934 81.3531 114.617C81.4721 114.294 81.6676 114.056 81.9396 113.903C82.2116 113.744 82.5714 113.665 83.0191 113.665C83.4724 113.665 83.8351 113.744 84.1071 113.903C84.3791 114.056 84.5746 114.294 84.6936 114.617C84.8126 114.934 84.8721 115.337 84.8721 115.824C84.8721 116.34 84.8154 116.765 84.7021 117.099C84.5944 117.428 84.4074 117.674 84.1411 117.838C83.8748 118.003 83.5008 118.085 83.0191 118.085ZM83.0191 117.464C83.3364 117.464 83.5744 117.411 83.7331 117.303C83.8918 117.19 83.9966 117.011 84.0476 116.767C84.0986 116.524 84.1241 116.209 84.1241 115.824C84.1241 115.444 84.0901 115.141 84.0221 114.914C83.9598 114.688 83.8493 114.526 83.6906 114.43C83.5319 114.334 83.3081 114.285 83.0191 114.285C82.7358 114.285 82.5119 114.334 82.3476 114.43C82.1889 114.526 82.0756 114.688 82.0076 114.914C81.9453 115.141 81.9141 115.444 81.9141 115.824C81.9141 116.209 81.9396 116.524 81.9906 116.767C82.0416 117.011 82.1464 117.19 82.3051 117.303C82.4638 117.411 82.7018 117.464 83.0191 117.464ZM85.8772 118V113.75H86.5912V114.311C86.6989 114.237 86.8321 114.158 86.9907 114.073C87.1551 113.982 87.3336 113.897 87.5262 113.818C87.7189 113.739 87.9116 113.685 88.1042 113.656V114.379C87.9172 114.419 87.7274 114.47 87.5347 114.532C87.3421 114.594 87.1636 114.662 86.9992 114.736C86.8349 114.81 86.6989 114.875 86.5912 114.931V118H85.8772ZM88.8323 118V113.75H89.5463V114.039C89.6823 113.96 89.8665 113.877 90.0988 113.792C90.3311 113.707 90.5521 113.665 90.7618 113.665C91.0451 113.665 91.2718 113.699 91.4418 113.767C91.6118 113.835 91.7506 113.943 91.8583 114.09C91.9716 114.028 92.1105 113.965 92.2748 113.903C92.4391 113.835 92.6148 113.778 92.8018 113.733C92.9888 113.688 93.173 113.665 93.3543 113.665C93.7453 113.665 94.0428 113.733 94.2468 113.869C94.4565 113.999 94.601 114.22 94.6803 114.532C94.7653 114.838 94.8078 115.246 94.8078 115.756V118H94.0853V115.79C94.0853 115.433 94.0626 115.147 94.0173 114.931C93.9776 114.71 93.8983 114.552 93.7793 114.455C93.6603 114.359 93.479 114.311 93.2353 114.311C93.0143 114.311 92.799 114.345 92.5893 114.413C92.3796 114.475 92.2181 114.538 92.1048 114.6C92.1388 114.747 92.1615 114.929 92.1728 115.144C92.1898 115.354 92.1983 115.572 92.1983 115.798V118H91.4843V115.824C91.4843 115.45 91.4645 115.152 91.4248 114.931C91.3851 114.71 91.303 114.552 91.1783 114.455C91.0593 114.359 90.8751 114.311 90.6258 114.311C90.4218 114.311 90.2178 114.345 90.0138 114.413C89.8155 114.475 89.6596 114.538 89.5463 114.6V118H88.8323ZM96.8981 118.085C96.4957 118.085 96.1897 117.975 95.9801 117.753C95.7761 117.532 95.6741 117.207 95.6741 116.776C95.6741 116.493 95.7222 116.263 95.8186 116.087C95.9206 115.912 96.0707 115.779 96.2691 115.688C96.4731 115.597 96.7196 115.541 97.0086 115.518L98.2836 115.39V115.042C98.2836 114.764 98.2212 114.569 98.0966 114.455C97.9719 114.342 97.7906 114.285 97.5526 114.285C97.4052 114.285 97.2324 114.291 97.0341 114.302C96.8414 114.314 96.6459 114.328 96.4476 114.345C96.2549 114.362 96.0849 114.379 95.9376 114.396L95.9036 113.852C96.0396 113.824 96.2039 113.795 96.3966 113.767C96.5949 113.739 96.7989 113.716 97.0086 113.699C97.2239 113.676 97.4194 113.665 97.5951 113.665C97.9237 113.665 98.1929 113.713 98.4026 113.809C98.6122 113.906 98.7652 114.056 98.8616 114.26C98.9636 114.458 99.0146 114.716 99.0146 115.033V117.158C99.0259 117.277 99.0741 117.365 99.1591 117.422C99.2441 117.473 99.3517 117.507 99.4821 117.524L99.4566 118.085C99.3319 118.085 99.2157 118.077 99.1081 118.06C99.0004 118.048 98.9041 118.031 98.8191 118.009C98.7341 117.98 98.6576 117.946 98.5896 117.906C98.5216 117.861 98.4564 117.81 98.3941 117.753C98.2864 117.799 98.1504 117.847 97.9861 117.898C97.8217 117.949 97.6461 117.991 97.4591 118.026C97.2721 118.065 97.0851 118.085 96.8981 118.085ZM97.0256 117.49C97.1729 117.49 97.3259 117.479 97.4846 117.456C97.6432 117.428 97.7934 117.394 97.9351 117.354C98.0767 117.314 98.1929 117.277 98.2836 117.243V115.917L97.1021 116.028C96.8584 116.051 96.6827 116.124 96.5751 116.249C96.4674 116.368 96.4136 116.538 96.4136 116.759C96.4136 116.986 96.4646 117.164 96.5666 117.294C96.6742 117.425 96.8272 117.49 97.0256 117.49ZM101.59 118.094C101.296 118.094 101.06 118.048 100.885 117.957C100.709 117.867 100.582 117.711 100.502 117.49C100.429 117.263 100.392 116.946 100.392 116.538V114.37H99.8053V113.75H100.392V112.475H101.114V113.75H102.415V114.37H101.114V116.334C101.114 116.623 101.126 116.85 101.148 117.014C101.177 117.173 101.23 117.286 101.31 117.354C101.395 117.416 101.525 117.447 101.701 117.447C101.757 117.447 101.828 117.445 101.913 117.439C102.004 117.433 102.095 117.428 102.185 117.422C102.282 117.411 102.364 117.402 102.432 117.396L102.474 118C102.35 118.017 102.199 118.037 102.024 118.06C101.854 118.082 101.709 118.094 101.59 118.094ZM103.176 118V113.75H103.89V118H103.176ZM103.176 112.849V112.058H103.89V112.849H103.176ZM106.734 118.085C106.258 118.085 105.884 118.003 105.612 117.838C105.346 117.674 105.159 117.428 105.051 117.099C104.944 116.765 104.89 116.34 104.89 115.824C104.89 115.337 104.949 114.934 105.068 114.617C105.187 114.294 105.383 114.056 105.655 113.903C105.927 113.744 106.287 113.665 106.734 113.665C107.188 113.665 107.55 113.744 107.822 113.903C108.094 114.056 108.29 114.294 108.409 114.617C108.528 114.934 108.587 115.337 108.587 115.824C108.587 116.34 108.531 116.765 108.417 117.099C108.31 117.428 108.123 117.674 107.856 117.838C107.59 118.003 107.216 118.085 106.734 118.085ZM106.734 117.464C107.052 117.464 107.29 117.411 107.448 117.303C107.607 117.19 107.712 117.011 107.763 116.767C107.814 116.524 107.839 116.209 107.839 115.824C107.839 115.444 107.805 115.141 107.737 114.914C107.675 114.688 107.565 114.526 107.406 114.43C107.247 114.334 107.023 114.285 106.734 114.285C106.451 114.285 106.227 114.334 106.063 114.43C105.904 114.526 105.791 114.688 105.723 114.914C105.661 115.141 105.629 115.444 105.629 115.824C105.629 116.209 105.655 116.524 105.706 116.767C105.757 117.011 105.862 117.19 106.02 117.303C106.179 117.411 106.417 117.464 106.734 117.464ZM109.593 118V113.75H110.307V114.039C110.403 113.982 110.522 113.926 110.664 113.869C110.811 113.812 110.964 113.764 111.123 113.724C111.287 113.685 111.443 113.665 111.59 113.665C111.981 113.665 112.281 113.736 112.491 113.877C112.701 114.013 112.845 114.234 112.925 114.54C113.004 114.846 113.044 115.252 113.044 115.756V118H112.321V115.781C112.321 115.424 112.298 115.138 112.253 114.923C112.213 114.708 112.131 114.552 112.007 114.455C111.888 114.359 111.701 114.311 111.446 114.311C111.31 114.311 111.168 114.328 111.021 114.362C110.879 114.39 110.746 114.427 110.621 114.472C110.496 114.518 110.392 114.563 110.307 114.608V118H109.593ZM117.793 118.077C117.612 118.077 117.405 118.065 117.173 118.043C116.946 118.026 116.719 118.003 116.493 117.974C116.266 117.94 116.068 117.912 115.898 117.889L115.966 117.277C116.136 117.294 116.328 117.314 116.544 117.337C116.765 117.36 116.983 117.379 117.198 117.396C117.413 117.413 117.598 117.422 117.751 117.422C118.147 117.422 118.445 117.334 118.643 117.158C118.841 116.977 118.941 116.697 118.941 116.317C118.941 116.113 118.901 115.949 118.822 115.824C118.742 115.699 118.609 115.603 118.422 115.535C118.241 115.461 117.994 115.393 117.683 115.331C117.269 115.246 116.926 115.144 116.654 115.025C116.382 114.906 116.178 114.739 116.042 114.523C115.912 114.308 115.847 114.016 115.847 113.648C115.847 113.257 115.926 112.945 116.085 112.713C116.243 112.475 116.467 112.302 116.756 112.194C117.045 112.087 117.382 112.033 117.768 112.033C117.938 112.033 118.133 112.044 118.354 112.067C118.575 112.084 118.793 112.107 119.009 112.135C119.224 112.158 119.408 112.183 119.561 112.211L119.51 112.832C119.34 112.809 119.147 112.789 118.932 112.772C118.717 112.75 118.507 112.73 118.303 112.713C118.105 112.696 117.943 112.688 117.819 112.688C117.416 112.688 117.113 112.761 116.909 112.908C116.705 113.056 116.603 113.282 116.603 113.588C116.603 113.832 116.648 114.016 116.739 114.141C116.83 114.266 116.977 114.365 117.181 114.438C117.385 114.506 117.651 114.577 117.98 114.651C118.28 114.725 118.538 114.801 118.754 114.88C118.969 114.96 119.147 115.059 119.289 115.178C119.431 115.291 119.533 115.436 119.595 115.611C119.663 115.787 119.697 116.002 119.697 116.257C119.697 116.694 119.618 117.045 119.459 117.311C119.306 117.578 119.088 117.773 118.805 117.898C118.521 118.017 118.184 118.077 117.793 118.077ZM121.492 119.87L122.045 118H121.373L120.2 113.75H120.931L121.934 117.379H122.215L123.218 113.75H123.949L122.232 119.87H121.492ZM126.043 118.085C125.907 118.085 125.743 118.077 125.55 118.06C125.363 118.043 125.179 118.023 124.998 118C124.816 117.972 124.655 117.946 124.513 117.923L124.556 117.311C124.697 117.328 124.856 117.348 125.032 117.371C125.213 117.394 125.389 117.413 125.559 117.43C125.729 117.442 125.868 117.447 125.975 117.447C126.196 117.447 126.38 117.428 126.528 117.388C126.675 117.348 126.786 117.28 126.859 117.184C126.939 117.088 126.978 116.949 126.978 116.767C126.978 116.631 126.947 116.527 126.885 116.453C126.828 116.379 126.72 116.317 126.562 116.266C126.409 116.215 126.182 116.17 125.882 116.13C125.564 116.079 125.298 116.014 125.083 115.934C124.873 115.855 124.717 115.739 124.615 115.586C124.519 115.433 124.471 115.215 124.471 114.931C124.471 114.608 124.544 114.356 124.692 114.175C124.839 113.988 125.032 113.858 125.27 113.784C125.508 113.705 125.757 113.665 126.018 113.665C126.182 113.665 126.361 113.673 126.553 113.69C126.746 113.707 126.933 113.73 127.114 113.758C127.296 113.781 127.451 113.804 127.582 113.826L127.565 114.438C127.429 114.416 127.267 114.396 127.08 114.379C126.899 114.356 126.718 114.339 126.536 114.328C126.355 114.311 126.196 114.302 126.06 114.302C125.896 114.302 125.749 114.319 125.618 114.353C125.488 114.387 125.383 114.45 125.304 114.54C125.23 114.625 125.193 114.744 125.193 114.897C125.193 115.016 125.222 115.113 125.278 115.186C125.335 115.26 125.44 115.322 125.593 115.373C125.746 115.419 125.97 115.467 126.264 115.518C126.616 115.575 126.896 115.645 127.106 115.73C127.321 115.815 127.477 115.937 127.573 116.096C127.67 116.249 127.718 116.464 127.718 116.742C127.718 117.246 127.568 117.598 127.267 117.796C126.973 117.989 126.565 118.085 126.043 118.085ZM130.062 118.094C129.767 118.094 129.532 118.048 129.356 117.957C129.181 117.867 129.053 117.711 128.974 117.49C128.9 117.263 128.863 116.946 128.863 116.538V114.37H128.277V113.75H128.863V112.475H129.586V113.75H130.886V114.37H129.586V116.334C129.586 116.623 129.597 116.85 129.62 117.014C129.648 117.173 129.702 117.286 129.781 117.354C129.866 117.416 129.997 117.447 130.172 117.447C130.229 117.447 130.3 117.445 130.385 117.439C130.476 117.433 130.566 117.428 130.657 117.422C130.753 117.411 130.835 117.402 130.903 117.396L130.946 118C130.821 118.017 130.671 118.037 130.495 118.06C130.325 118.082 130.181 118.094 130.062 118.094ZM133.178 118.085C132.747 118.085 132.407 118.003 132.158 117.838C131.908 117.674 131.727 117.43 131.614 117.107C131.506 116.784 131.452 116.382 131.452 115.9C131.452 115.368 131.526 114.937 131.673 114.608C131.821 114.28 132.027 114.042 132.294 113.894C132.566 113.741 132.889 113.665 133.263 113.665C133.841 113.665 134.274 113.824 134.563 114.141C134.858 114.453 135.005 114.954 135.005 115.645L134.971 116.172H132.192C132.197 116.592 132.277 116.912 132.43 117.133C132.583 117.348 132.86 117.456 133.263 117.456C133.421 117.456 133.597 117.453 133.79 117.447C133.982 117.436 134.172 117.425 134.359 117.413C134.552 117.402 134.713 117.391 134.844 117.379L134.861 117.94C134.725 117.963 134.558 117.986 134.359 118.009C134.161 118.031 133.957 118.048 133.747 118.06C133.543 118.077 133.353 118.085 133.178 118.085ZM132.192 115.603H134.274C134.274 115.104 134.195 114.756 134.036 114.557C133.878 114.353 133.62 114.251 133.263 114.251C132.917 114.251 132.651 114.356 132.464 114.566C132.282 114.776 132.192 115.121 132.192 115.603ZM135.956 118V113.75H136.67V114.039C136.806 113.96 136.99 113.877 137.222 113.792C137.455 113.707 137.676 113.665 137.885 113.665C138.169 113.665 138.395 113.699 138.565 113.767C138.735 113.835 138.874 113.943 138.982 114.09C139.095 114.028 139.234 113.965 139.398 113.903C139.563 113.835 139.738 113.778 139.925 113.733C140.112 113.688 140.297 113.665 140.478 113.665C140.869 113.665 141.166 113.733 141.37 113.869C141.58 113.999 141.725 114.22 141.804 114.532C141.889 114.838 141.931 115.246 141.931 115.756V118H141.209V115.79C141.209 115.433 141.186 115.147 141.141 114.931C141.101 114.71 141.022 114.552 140.903 114.455C140.784 114.359 140.603 114.311 140.359 114.311C140.138 114.311 139.923 114.345 139.713 114.413C139.503 114.475 139.342 114.538 139.228 114.6C139.262 114.747 139.285 114.929 139.296 115.144C139.313 115.354 139.322 115.572 139.322 115.798V118H138.608V115.824C138.608 115.45 138.588 115.152 138.548 114.931C138.509 114.71 138.427 114.552 138.302 114.455C138.183 114.359 137.999 114.311 137.749 114.311C137.545 114.311 137.341 114.345 137.137 114.413C136.939 114.475 136.783 114.538 136.67 114.6V118H135.956ZM144.421 118.085C144.285 118.085 144.121 118.077 143.928 118.06C143.741 118.043 143.557 118.023 143.376 118C143.194 117.972 143.033 117.946 142.891 117.923L142.934 117.311C143.075 117.328 143.234 117.348 143.41 117.371C143.591 117.394 143.767 117.413 143.937 117.43C144.107 117.442 144.245 117.447 144.353 117.447C144.574 117.447 144.758 117.428 144.906 117.388C145.053 117.348 145.163 117.28 145.237 117.184C145.316 117.088 145.356 116.949 145.356 116.767C145.356 116.631 145.325 116.527 145.263 116.453C145.206 116.379 145.098 116.317 144.94 116.266C144.787 116.215 144.56 116.17 144.26 116.13C143.942 116.079 143.676 116.014 143.461 115.934C143.251 115.855 143.095 115.739 142.993 115.586C142.897 115.433 142.849 115.215 142.849 114.931C142.849 114.608 142.922 114.356 143.07 114.175C143.217 113.988 143.41 113.858 143.648 113.784C143.886 113.705 144.135 113.665 144.396 113.665C144.56 113.665 144.738 113.673 144.931 113.69C145.124 113.707 145.311 113.73 145.492 113.758C145.673 113.781 145.829 113.804 145.96 113.826L145.943 114.438C145.807 114.416 145.645 114.396 145.458 114.379C145.277 114.356 145.095 114.339 144.914 114.328C144.733 114.311 144.574 114.302 144.438 114.302C144.274 114.302 144.126 114.319 143.996 114.353C143.866 114.387 143.761 114.45 143.682 114.54C143.608 114.625 143.571 114.744 143.571 114.897C143.571 115.016 143.599 115.113 143.656 115.186C143.713 115.26 143.818 115.322 143.971 115.373C144.124 115.419 144.347 115.467 144.642 115.518C144.993 115.575 145.274 115.645 145.484 115.73C145.699 115.815 145.855 115.937 145.951 116.096C146.047 116.249 146.096 116.464 146.096 116.742C146.096 117.246 145.945 117.598 145.645 117.796C145.35 117.989 144.942 118.085 144.421 118.085ZM150.18 118V112.798H148.421V112.135H152.671V112.798H150.928V118H150.18ZM154.353 118.085C153.922 118.085 153.582 118.003 153.333 117.838C153.084 117.674 152.902 117.43 152.789 117.107C152.681 116.784 152.628 116.382 152.628 115.9C152.628 115.368 152.701 114.937 152.849 114.608C152.996 114.28 153.203 114.042 153.469 113.894C153.741 113.741 154.064 113.665 154.438 113.665C155.016 113.665 155.45 113.824 155.739 114.141C156.033 114.453 156.181 114.954 156.181 115.645L156.147 116.172H153.367C153.373 116.592 153.452 116.912 153.605 117.133C153.758 117.348 154.036 117.456 154.438 117.456C154.597 117.456 154.772 117.453 154.965 117.447C155.158 117.436 155.348 117.425 155.535 117.413C155.727 117.402 155.889 117.391 156.019 117.379L156.036 117.94C155.9 117.963 155.733 117.986 155.535 118.009C155.336 118.031 155.132 118.048 154.923 118.06C154.719 118.077 154.529 118.085 154.353 118.085ZM153.367 115.603H155.45C155.45 115.104 155.37 114.756 155.212 114.557C155.053 114.353 154.795 114.251 154.438 114.251C154.092 114.251 153.826 114.356 153.639 114.566C153.458 114.776 153.367 115.121 153.367 115.603ZM158.721 118.085C158.267 118.085 157.91 118.011 157.65 117.864C157.395 117.711 157.213 117.467 157.106 117.133C157.004 116.799 156.953 116.357 156.953 115.807C156.953 115.291 157.012 114.875 157.131 114.557C157.25 114.24 157.44 114.013 157.701 113.877C157.967 113.736 158.31 113.665 158.729 113.665C158.831 113.665 158.953 113.673 159.095 113.69C159.236 113.702 159.381 113.719 159.528 113.741C159.681 113.758 159.811 113.775 159.919 113.792L159.894 114.387C159.792 114.376 159.678 114.365 159.554 114.353C159.429 114.342 159.304 114.334 159.18 114.328C159.061 114.317 158.961 114.311 158.882 114.311C158.57 114.311 158.327 114.362 158.151 114.464C157.981 114.56 157.862 114.716 157.794 114.931C157.726 115.147 157.692 115.439 157.692 115.807C157.692 116.209 157.72 116.529 157.777 116.767C157.839 117.005 157.956 117.178 158.126 117.286C158.296 117.388 158.548 117.439 158.882 117.439C158.961 117.439 159.063 117.436 159.188 117.43C159.313 117.419 159.437 117.408 159.562 117.396C159.692 117.385 159.809 117.377 159.911 117.371L159.928 117.957C159.814 117.98 159.681 118 159.528 118.017C159.381 118.034 159.233 118.048 159.086 118.06C158.944 118.077 158.823 118.085 158.721 118.085ZM160.858 118V111.914H161.572V113.971C161.72 113.903 161.915 113.835 162.159 113.767C162.402 113.699 162.635 113.665 162.856 113.665C163.247 113.665 163.547 113.736 163.757 113.877C163.966 114.013 164.108 114.234 164.182 114.54C164.261 114.846 164.301 115.249 164.301 115.747V118H163.578V115.781C163.578 115.424 163.556 115.138 163.51 114.923C163.471 114.708 163.391 114.552 163.272 114.455C163.153 114.359 162.966 114.311 162.711 114.311C162.507 114.311 162.298 114.339 162.082 114.396C161.873 114.447 161.703 114.498 161.572 114.549V118H160.858ZM165.449 118V113.75H166.163V114.039C166.259 113.982 166.378 113.926 166.52 113.869C166.667 113.812 166.82 113.764 166.979 113.724C167.143 113.685 167.299 113.665 167.446 113.665C167.837 113.665 168.137 113.736 168.347 113.877C168.557 114.013 168.701 114.234 168.781 114.54C168.86 114.846 168.9 115.252 168.9 115.756V118H168.177V115.781C168.177 115.424 168.154 115.138 168.109 114.923C168.069 114.708 167.987 114.552 167.863 114.455C167.744 114.359 167.557 114.311 167.302 114.311C167.166 114.311 167.024 114.328 166.877 114.362C166.735 114.39 166.602 114.427 166.477 114.472C166.352 114.518 166.248 114.563 166.163 114.608V118H165.449ZM171.696 118.085C171.22 118.085 170.846 118.003 170.574 117.838C170.308 117.674 170.121 117.428 170.013 117.099C169.906 116.765 169.852 116.34 169.852 115.824C169.852 115.337 169.911 114.934 170.03 114.617C170.149 114.294 170.345 114.056 170.617 113.903C170.889 113.744 171.249 113.665 171.696 113.665C172.15 113.665 172.512 113.744 172.784 113.903C173.056 114.056 173.252 114.294 173.371 114.617C173.49 114.934 173.549 115.337 173.549 115.824C173.549 116.34 173.493 116.765 173.379 117.099C173.272 117.428 173.085 117.674 172.818 117.838C172.552 118.003 172.178 118.085 171.696 118.085ZM171.696 117.464C172.014 117.464 172.252 117.411 172.41 117.303C172.569 117.19 172.674 117.011 172.725 116.767C172.776 116.524 172.801 116.209 172.801 115.824C172.801 115.444 172.767 115.141 172.699 114.914C172.637 114.688 172.527 114.526 172.368 114.43C172.209 114.334 171.985 114.285 171.696 114.285C171.413 114.285 171.189 114.334 171.025 114.43C170.866 114.526 170.753 114.688 170.685 114.914C170.623 115.141 170.591 115.444 170.591 115.824C170.591 116.209 170.617 116.524 170.668 116.767C170.719 117.011 170.824 117.19 170.982 117.303C171.141 117.411 171.379 117.464 171.696 117.464ZM174.597 118V111.914H175.319V118H174.597ZM178.212 118.085C177.736 118.085 177.362 118.003 177.09 117.838C176.824 117.674 176.637 117.428 176.529 117.099C176.422 116.765 176.368 116.34 176.368 115.824C176.368 115.337 176.427 114.934 176.546 114.617C176.665 114.294 176.861 114.056 177.133 113.903C177.405 113.744 177.765 113.665 178.212 113.665C178.666 113.665 179.028 113.744 179.3 113.903C179.572 114.056 179.768 114.294 179.887 114.617C180.006 114.934 180.065 115.337 180.065 115.824C180.065 116.34 180.009 116.765 179.895 117.099C179.788 117.428 179.601 117.674 179.334 117.838C179.068 118.003 178.694 118.085 178.212 118.085ZM178.212 117.464C178.53 117.464 178.768 117.411 178.926 117.303C179.085 117.19 179.19 117.011 179.241 116.767C179.292 116.524 179.317 116.209 179.317 115.824C179.317 115.444 179.283 115.141 179.215 114.914C179.153 114.688 179.043 114.526 178.884 114.43C178.725 114.334 178.501 114.285 178.212 114.285C177.929 114.285 177.705 114.334 177.541 114.43C177.382 114.526 177.269 114.688 177.201 114.914C177.139 115.141 177.107 115.444 177.107 115.824C177.107 116.209 177.133 116.524 177.184 116.767C177.235 117.011 177.34 117.19 177.498 117.303C177.657 117.411 177.895 117.464 178.212 117.464ZM182.737 119.989C182.295 119.989 181.938 119.952 181.666 119.879C181.394 119.805 181.192 119.675 181.062 119.488C180.937 119.301 180.875 119.046 180.875 118.723C180.875 118.558 180.901 118.417 180.952 118.298C181.003 118.184 181.076 118.079 181.173 117.983C181.269 117.881 181.391 117.776 181.538 117.668C181.464 117.612 181.405 117.532 181.36 117.43C181.32 117.323 181.3 117.204 181.3 117.073C181.3 117.011 181.334 116.912 181.402 116.776C181.47 116.634 181.535 116.51 181.598 116.402C181.479 116.345 181.368 116.269 181.266 116.172C181.17 116.07 181.09 115.934 181.028 115.764C180.966 115.594 180.935 115.379 180.935 115.118C180.935 114.597 181.082 114.226 181.377 114.005C181.677 113.778 182.068 113.665 182.55 113.665C182.703 113.665 182.864 113.676 183.034 113.699C183.204 113.722 183.337 113.744 183.434 113.767L184.717 113.741V114.328L183.935 114.311C184.014 114.39 184.08 114.495 184.131 114.625C184.182 114.75 184.207 114.914 184.207 115.118C184.207 115.492 184.145 115.784 184.02 115.994C183.895 116.204 183.708 116.351 183.459 116.436C183.215 116.521 182.907 116.563 182.533 116.563C182.493 116.563 182.425 116.561 182.329 116.555C182.238 116.544 182.17 116.535 182.125 116.529C182.096 116.603 182.065 116.691 182.031 116.793C181.997 116.889 181.98 116.954 181.98 116.988C181.98 117.096 182 117.178 182.04 117.235C182.079 117.286 182.173 117.32 182.32 117.337C182.467 117.354 182.697 117.362 183.009 117.362C183.411 117.362 183.734 117.396 183.978 117.464C184.221 117.532 184.394 117.657 184.496 117.838C184.604 118.014 184.658 118.272 184.658 118.612C184.658 119.099 184.488 119.451 184.148 119.666C183.813 119.881 183.343 119.989 182.737 119.989ZM182.737 119.394C183.15 119.394 183.453 119.335 183.646 119.216C183.839 119.102 183.935 118.915 183.935 118.655C183.935 118.456 183.901 118.309 183.833 118.213C183.771 118.122 183.666 118.06 183.519 118.026C183.371 117.997 183.173 117.983 182.924 117.983C182.867 117.983 182.793 117.983 182.703 117.983C182.618 117.977 182.527 117.974 182.431 117.974C182.34 117.969 182.255 117.963 182.176 117.957C182.102 117.952 182.051 117.949 182.023 117.949C181.853 118.068 181.736 118.176 181.674 118.272C181.612 118.368 181.581 118.496 181.581 118.655C181.581 118.83 181.612 118.972 181.674 119.08C181.742 119.187 181.861 119.267 182.031 119.318C182.201 119.369 182.436 119.394 182.737 119.394ZM182.55 115.994C182.89 115.994 183.13 115.929 183.272 115.798C183.414 115.662 183.485 115.436 183.485 115.118C183.485 114.801 183.414 114.574 183.272 114.438C183.13 114.302 182.89 114.234 182.55 114.234C182.232 114.234 182.003 114.302 181.861 114.438C181.725 114.574 181.657 114.801 181.657 115.118C181.657 115.436 181.725 115.662 181.861 115.798C182.003 115.929 182.232 115.994 182.55 115.994ZM186.363 119.87L186.915 118H186.244L185.071 113.75H185.802L186.805 117.379H187.085L188.088 113.75H188.819L187.102 119.87H186.363Z"
        fill="#060606" />
    <defs>
        <linearGradient id="paint0_linear_138_398" x1="112.5" y1="52" x2="75" y2="77"
            gradientUnits="userSpaceOnUse">
            <stop stop-color="#513CAB" />
            <stop offset="1" stop-color="#876CFF" />
        </linearGradient>
        <linearGradient id="paint1_linear_138_398" x1="28.5" y1="47.5" x2="68" y2="79"
            gradientUnits="userSpaceOnUse">
            <stop stop-color="#513CAB" />
            <stop offset="1" stop-color="#876CFF" />
        </linearGradient>
    </defs>
</svg>
    