<svg width="315" height="168" viewBox="0 0 315 168" fill="none" xmlns="http://www.w3.org/2000/svg">
    <path d="M165.555 7.256C165.555 2.23274 166.389 1.3956 170.833 1.3956C175.278 1.3956 176.111 1.95367 176.111 7.256V59.4421C176.111 61.9537 177.5 64.4653 180.278 64.4653H217.5C220.833 64.4653 221.389 61.6746 221.389 59.4421V41.0234C221.389 35.721 222.222 35.163 226.667 35.163C231.111 35.163 231.944 35.721 231.944 41.0234V59.4421C231.944 61.9537 233.333 64.4653 236.111 64.4653H261.111C264.444 64.4653 263.889 61.6746 263.889 59.4421V41.0234C263.889 35.721 266.111 35.163 270.555 35.163C275 35.163 277.222 35.721 277.222 41.0234V59.4421C277.222 61.9537 277.222 64.4653 280.556 64.4653H299.444C302.778 64.4653 303.889 61.6746 303.889 59.4421V41.0234C303.889 35.721 304.722 35.163 309.167 35.163C313.611 35.163 314.444 35.721 314.444 41.0234V59.4421C314.444 70.6049 311.667 72.8374 301.111 72.8374H178.611C168.056 72.8374 165.555 70.3258 165.555 59.4421V7.256ZM86.9444 3.34895C89.7222 6.97686 89.7222 8.09327 85.5555 11.163L57.2222 34.0466C56.3888 34.6048 56.111 36.5583 58.0555 36.5583H98.3332C108.055 36.5583 109.444 37.6746 109.444 47.1629V59.1629C109.444 61.6745 110.556 64.1863 113.333 64.1863H138.333C141.389 64.1863 141.111 61.3955 141.111 59.1629V40.7444C141.111 35.442 143.333 34.884 147.778 34.884C152.222 34.884 154.444 35.442 154.444 40.7444V59.1629C154.444 70.3257 151.111 72.5584 140.278 72.5584H0C0.833333 66.977 6.94434 64.1863 14.9999 64.1863H94.7222C97.2222 64.1863 98.6111 62.5119 98.6111 60.0002V48.0001C98.6111 45.7676 97.4999 44.6514 94.7222 44.6514H50.5556C43.0556 44.6514 40.8334 40.4652 40.8334 36.8373C40.8334 33.4885 43.3333 30.6978 46.111 28.4652L79.1667 2.23278C83.3333 -0.557922 84.1666 -0.558025 86.9444 3.34895ZM130.556 94.0466L127.778 97.1165C124.444 100.465 121.667 100.744 118.889 98.2327C116.111 95.442 116.389 92.3722 119.722 89.0234L122.778 85.9537C126.111 82.6049 128.889 82.3257 131.667 84.8374C134.167 87.6281 133.889 90.6978 130.556 94.0466Z" fill="#0047AF"/>
    <path d="M132.5 167.721C139.444 167.721 141.666 165.488 141.666 158.512V154.326C141.666 147.07 139.722 145.395 132.5 145.395H109.722C109.444 145.395 109.166 145.395 109.166 145.116C109.166 144.279 118.889 137.86 137.5 137.302C140.555 137.302 140.833 135.907 140.833 133.116C140.833 130.605 140 129.209 136.667 129.209C112.222 129.209 98.0553 142.046 98.0553 148.744C98.0553 151.814 99.7221 153.767 106.111 153.767H130.277C132.222 153.767 131.111 153.767 131.111 155.163V157.674C131.111 159.07 131.944 159.349 130.277 159.349H97.7776C91.9443 159.349 87.4998 162.139 86.6665 167.721H132.5ZM254.444 119.163L252.5 121.116C249.722 123.907 247.777 124.186 245.555 121.953C243.333 119.721 243.611 117.209 246.389 114.698L248.333 112.465C251.111 109.953 253.055 109.395 255.277 111.628C257.222 114.14 256.944 116.651 254.444 119.163ZM151.111 167.721C147.777 167.721 145.278 166.605 145.278 161.86C145.278 142.326 165.277 129.209 173.333 129.209C176.111 129.209 176.666 131.163 176.666 133.674V145.953C176.666 149.302 176.667 150.419 172.778 150.419C169.167 150.419 168.889 149.302 168.889 145.953V139.535C168.889 139.256 169.166 139.256 169.166 139.256C165.833 139.256 154.444 149.581 154.444 157.953C154.444 158.791 154.722 159.349 156.944 159.349H180.277C182.222 159.349 182.222 158.791 182.222 157.116V123.628C182.222 119.721 184.166 118.884 187.5 118.884C190.833 118.884 192.777 119.442 192.777 123.628V157.116C192.777 165.209 189.444 167.721 181.666 167.721H151.111ZM207.222 167.721C199.444 167.721 197.5 165.209 197.5 157.116V102.698C197.5 98.7907 198.055 98.2324 201.389 98.2324C204.722 98.2324 205.277 98.7907 205.277 102.698V157.116C205.277 158.791 206.389 159.349 208.333 159.349H231.389C233.611 159.349 233.611 158.791 233.611 157.953C233.611 154.046 228.333 142.605 211.944 137.581C208.889 136.744 208.611 135.07 209.722 132.279C210.833 129.209 212.777 129.209 215 129.767C234.166 135.628 242.5 149.023 242.5 161.86C242.5 166.605 239.722 167.721 236.667 167.721H207.222ZM248.055 162.139V138.419C248.055 137.86 248.611 137.023 247.778 137.023H246.111C242.778 137.023 241.666 135.907 241.666 132.837C241.666 129.767 242.778 128.651 246.111 128.651H253.333C255.833 128.651 256.389 130.605 256.389 133.395V162.977C256.389 166.884 255.555 167.721 252.5 167.721C249.166 167.721 248.333 167.163 248.333 162.977V162.139H248.055ZM262.5 161.86C262.5 147.628 274.166 129.209 298.055 129.209C300.833 129.209 301.389 131.163 301.389 133.674V145.953C301.389 149.302 301.111 150.419 297.5 150.419C293.889 150.419 293.611 149.302 293.611 145.953V139.535C293.611 138.419 293.611 138.14 293.055 138.14C280.278 138.14 271.111 151.814 271.111 157.953C271.111 158.791 271.389 159.349 273.611 159.349H304.444C310.278 159.349 314.722 162.139 315.555 167.721H268.889C265.278 167.721 262.5 166.605 262.5 161.86Z" fill="#FF9700"/>
    </svg>
    