<svg width="184" height="202" viewBox="0 0 184 202" fill="none" xmlns="http://www.w3.org/2000/svg">
    <g clip-path="url(#clip0_187_1495)">
    <path d="M79.3218 178.57C77.58 178.147 75.9031 177.491 74.3365 176.619C72.7296 175.772 71.3247 174.587 70.2182 173.146C69.0428 171.741 68.3585 169.989 68.2694 168.158H79.7546C79.7546 168.592 80.1873 169.025 80.4052 169.458C80.7111 169.81 81.0781 170.103 81.4885 170.324C82.4424 170.754 83.4766 170.977 84.5228 170.977C85.5689 170.977 86.6032 170.754 87.5571 170.324C88.3451 169.925 89.0164 169.328 89.5059 168.592C90.0492 167.832 90.3509 166.926 90.3714 165.992C90.5519 164.915 90.6248 163.823 90.5892 162.732V161.213C89.3806 162.428 87.9926 163.451 86.4738 164.245C84.8921 164.884 83.1928 165.18 81.4885 165.112C79.557 165.129 77.6414 164.76 75.8541 164.027C74.1382 163.352 72.5861 162.318 71.3015 160.995C69.9938 159.656 69.0279 158.021 68.4857 156.229C67.7735 154.358 67.4065 152.372 67.4024 150.369C67.4264 148.37 67.7928 146.388 68.4857 144.513C69.099 142.638 70.1356 140.93 71.515 139.522C72.8144 138.016 74.4434 136.83 76.2753 136.056C78.1811 135.191 80.2512 134.748 82.3439 134.757C83.9736 134.71 85.5952 135.005 87.1041 135.623C88.5973 136.26 89.8765 137.312 90.7897 138.656H91.0061V135.623H101.192V162.299C101.213 164.941 100.848 167.572 100.108 170.108C99.3874 172.046 98.2813 173.817 96.8569 175.315C95.3923 176.73 93.6078 177.771 91.6552 178.347C89.3291 178.996 86.9183 179.288 84.5048 179.214C82.759 179.187 81.0212 178.971 79.3218 178.57ZM81.9183 144.29C81.1696 144.676 80.4468 145.11 79.7546 145.59C79.2741 146.282 78.8404 147.006 78.4563 147.756C78.1053 148.499 77.956 149.322 78.0236 150.141C77.9403 150.983 78.0533 151.833 78.3537 152.623C78.654 153.414 79.1336 154.124 79.7546 154.697C81.0266 155.949 82.739 156.651 84.5228 156.651C86.3066 156.651 88.019 155.949 89.291 154.697C90.3948 153.435 91.009 151.819 91.022 150.141C91.1108 149.321 90.9605 148.492 90.5892 147.756C90.3732 146.924 89.9225 146.172 89.291 145.59C88.5995 145.109 87.8766 144.675 87.1272 144.29C86.3722 143.98 85.5601 143.832 84.7442 143.857C83.7889 143.878 82.8404 144.024 81.9227 144.29H81.9183ZM159.29 164.684C157.606 163.854 156.069 162.754 154.739 161.429C153.406 159.986 152.376 158.29 151.71 156.442C151.037 154.559 150.671 152.581 150.626 150.582C150.683 146.632 152.056 142.814 154.528 139.734C155.859 138.41 157.396 137.311 159.079 136.479C160.902 135.592 162.907 135.147 164.933 135.18C166.634 135.15 168.324 135.444 169.915 136.046C171.426 136.654 172.765 137.622 173.817 138.865V136.048H184.003V165.119H173.822V161.865C172.921 163.274 171.644 164.401 170.136 165.12C168.545 165.721 166.854 166.015 165.154 165.987C163.125 166.019 161.118 165.573 159.294 164.684H159.29ZM164.708 144.51C163.935 144.834 163.263 145.357 162.759 146.027L161.461 147.98C161.109 148.798 160.96 149.69 161.028 150.579C160.995 151.416 161.131 152.252 161.429 153.035C161.726 153.819 162.179 154.534 162.759 155.138C164.032 156.388 165.743 157.088 167.526 157.088C169.309 157.088 171.02 156.388 172.293 155.138C173.396 153.874 174.01 152.257 174.024 150.579C174.091 149.69 173.943 148.798 173.591 147.98C173.423 147.187 172.958 146.488 172.293 146.027C171.663 145.401 170.931 144.888 170.129 144.51C169.293 144.223 168.416 144.076 167.532 144.076C166.577 144.097 165.629 144.242 164.712 144.51H164.708ZM8.66945 164.684C6.98606 163.855 5.44889 162.756 4.11835 161.432C2.78576 159.989 1.75571 158.293 1.08909 156.444C0.395269 154.567 0.0269439 152.584 0 150.582C0.0563445 146.632 1.42973 142.814 3.90197 139.734C5.23331 138.411 6.7703 137.312 8.45307 136.481C10.2897 135.639 12.2838 135.196 14.3039 135.181C15.9366 135.132 17.5614 135.428 19.0728 136.048C20.6754 136.596 22.0989 137.571 23.1911 138.866V136.048H33.3767V165.119H23.4075V161.865C22.4761 163.33 21.1123 164.467 19.5055 165.12C17.9193 165.739 16.2251 166.034 14.5231 165.987C12.4968 166.019 10.4915 165.572 8.66945 164.684ZM14.3039 144.51C13.5312 144.833 12.8586 145.357 12.355 146.027C11.7778 146.569 11.3335 147.237 11.0568 147.98C10.8083 148.825 10.663 149.698 10.624 150.579C10.5403 151.421 10.6531 152.271 10.9534 153.062C11.2538 153.853 11.7336 154.564 12.355 155.138C12.9565 155.793 13.6949 156.308 14.5177 156.645C15.3405 156.982 16.2274 157.134 17.1153 157.089C18.0055 157.155 18.8991 157.014 19.7253 156.675C20.5514 156.336 21.2876 155.81 21.8756 155.138C22.979 153.874 23.5932 152.257 23.6066 150.579C23.5676 149.698 23.4223 148.825 23.1738 147.98C22.8447 147.265 22.4067 146.607 21.8756 146.027C21.3247 145.406 20.664 144.891 19.9267 144.51C19.0102 144.242 18.0625 144.097 17.1081 144.076C16.16 144.114 15.2193 144.26 14.3039 144.51ZM113.131 164.898C111.085 164.237 109.176 163.21 107.497 161.865C105.956 160.413 104.72 158.666 103.864 156.728C103.008 154.79 102.548 152.7 102.512 150.582C102.448 148.248 102.97 145.936 104.03 143.857C104.89 141.953 106.236 140.309 107.932 139.092C109.581 137.702 111.5 136.669 113.567 136.059C115.596 135.407 117.722 135.114 119.852 135.193C122.122 135.146 124.386 135.438 126.57 136.059C128.55 136.72 130.388 137.749 131.988 139.092C133.566 140.43 134.888 142.045 135.89 143.857C136.871 145.964 137.388 148.257 137.406 150.582C137.469 152.846 136.945 155.089 135.884 157.09C135.027 158.997 133.684 160.644 131.989 161.865C130.388 163.207 128.551 164.235 126.571 164.898C122.166 166.052 117.536 166.052 113.131 164.898ZM117.033 144.504C116.26 144.828 115.586 145.351 115.081 146.022C114.649 146.673 114.216 147.324 113.783 147.974C113.535 148.82 113.389 149.692 113.351 150.573C113.317 151.411 113.453 152.246 113.751 153.029C114.048 153.813 114.501 154.528 115.081 155.132C116.354 156.382 118.066 157.082 119.85 157.082C121.633 157.082 123.345 156.382 124.618 155.132C125.721 153.869 126.336 152.251 126.349 150.573C126.31 149.692 126.165 148.82 125.916 147.974C125.75 147.18 125.285 146.481 124.618 146.022C124.067 145.399 123.405 144.885 122.666 144.504C120.833 143.923 118.865 143.923 117.032 144.504H117.033ZM138.704 164.902V118.256H148.891V164.898L138.704 164.902ZM55.698 164.902V148.413C55.659 147.532 55.5137 146.659 55.2652 145.814C55.0988 145.02 54.634 144.32 53.9669 143.86C53.1415 143.284 52.157 142.981 51.1512 142.993C50.2678 142.994 49.3905 143.14 48.5547 143.427C47.8824 143.812 47.2938 144.328 46.8237 144.944C46.4062 145.608 46.1129 146.342 45.9582 147.11C45.7793 147.892 45.7065 148.695 45.7418 149.496V164.465H35.5433V135.612H45.7274V139.734C46.8196 138.225 48.2231 136.967 49.8428 136.048C51.5002 135.409 53.2699 135.114 55.0445 135.181C56.7501 135.093 58.4538 135.389 60.0298 136.048C61.2681 136.607 62.3757 137.419 63.2812 138.433C64.1855 139.592 64.8491 140.92 65.2329 142.339C65.6744 143.889 65.893 145.493 65.882 147.105V164.898L55.698 164.902Z" fill="#DB0812"/>
    <path d="M161.461 200.916C159.51 200.226 157.734 199.114 156.259 197.661C154.929 196.096 153.834 194.344 153.008 192.463C152.121 190.408 151.678 188.189 151.71 185.951C151.679 183.645 152.121 181.356 153.008 179.227C153.669 177.26 154.782 175.476 156.259 174.02C157.792 172.641 159.552 171.539 161.461 170.765C163.63 170.055 165.897 169.689 168.179 169.68C171.075 169.597 173.934 170.349 176.415 171.846C178.806 173.358 180.692 175.548 181.833 178.138L182.05 178.789L173.597 182.255L173.38 181.604C172.861 180.463 172.126 179.433 171.217 178.571C170.121 177.858 168.841 177.481 167.534 177.487C166.488 177.472 165.453 177.694 164.505 178.136C163.638 178.605 162.896 179.274 162.341 180.089C161.908 180.955 161.475 181.822 161.043 182.91C160.463 185.041 160.463 187.288 161.043 189.419C161.417 190.423 161.927 191.372 162.559 192.237C163.113 193.052 163.855 193.722 164.723 194.19C165.612 194.799 166.675 195.104 167.752 195.056C169.127 195.061 170.477 194.685 171.654 193.972C172.484 193.246 173.023 192.243 173.17 191.15H167.101V183.341H183.791V183.992C183.791 185.076 183.575 186.158 183.575 187.247C183.553 188.271 183.408 189.29 183.142 190.279C182.953 191.248 182.663 192.193 182.276 193.101C181.942 194.124 181.428 195.08 180.757 195.922C179.367 197.962 177.407 199.546 175.123 200.478C170.789 202.342 165.911 202.497 161.468 200.912L161.461 200.916ZM141.955 201.782L128.951 184.861V201.784H120.065V171.195H128.519L141.738 187.899V171.195H150.407V201.785L141.955 201.782ZM101.211 201.782V171.195H109.88V193.974H118.984V201.784L101.211 201.782ZM35.3328 118.689C49.8516 106.975 72.3922 118.908 80.6274 128.019C68.0517 127.151 54.6133 113.049 35.3328 118.689ZM64.3747 108.278C63.7242 102.203 69.3572 100.249 67.8368 95.4762C63.9348 82.0237 27.5245 92.0106 22.5421 102.854C25.5714 79.8548 69.3543 86.1464 73.6875 60.5439C68.4859 53.8191 58.9495 60.5439 52.8823 62.9323C53.4002 65.8463 55.5726 65.1113 57.6137 64.3763C59.8265 63.5778 61.8879 62.7879 61.5503 66.6189C56.565 66.6189 51.7976 72.6939 48.7625 69.6513C46.5988 67.6976 44.435 70.7358 42.6939 71.6037C30.9894 77.6888 22.972 88.968 14.7353 100.032C13.652 101.553 15.3859 102.854 13.2192 105.672C11.2675 108.061 8.66814 107.625 7.36844 109.145C6.03711 110.835 4.58759 112.427 3.03083 113.911C-10.6196 99.5989 27.7395 70.0918 40.0931 62.9338C47.0286 45.3585 49.1953 23.2303 65.6687 15.2016C65.0181 18.8911 64.8032 22.7943 63.2857 25.6159C78.2372 14.985 95.1419 0.667488 121.149 0.0147894C154.309 -0.635021 183.133 20.1921 183.785 49.9159C184.437 79.6396 159.078 104.153 141.953 116.302C156.043 99.8155 174.465 84.1869 172.082 55.7728C168.395 6.30784 99.9108 5.22194 72.3864 40.8027C78.455 42.3232 81.2722 30.3884 89.7239 30.3884C92.5425 36.68 90.8072 47.5275 88.6405 52.5195C99.0439 71.6123 110.096 90.0525 115.298 114.134C114.431 119.124 92.5425 124.764 92.5425 124.764C84.3058 120.432 80.4038 106.975 64.369 108.276L64.3747 108.278ZM0.649261 120.865C11.7046 122.165 20.589 119.345 28.8228 116.742C26.9894 120.836 17.8886 124.475 10.2708 124.475C6.19424 124.475 2.53894 123.433 0.649261 120.865ZM145.423 46.6625C141.521 23.4469 108.146 31.2577 94.275 41.8886C91.6785 39.0669 93.8422 31.4743 93.1917 26.9184C113.781 14.1171 151.058 15.203 158.211 36.2482C167.097 61.8493 138.706 81.1573 125.703 96.5622C131.336 83.1082 148.891 68.1409 145.423 46.6625Z" fill="black"/>
    </g>
    <defs>
    <clipPath id="clip0_187_1495">
    <rect width="184" height="202" fill="white"/>
    </clipPath>
    </defs>
    </svg>
    