<svg width="280" height="102" viewBox="0 0 280 102" fill="none" xmlns="http://www.w3.org/2000/svg">
    <path
        d="M118.538 6H34.9314C24.8877 12.3854 10.8265 31.8047 34.9314 48.2566H82.9783C94.5603 55.2994 110.775 75.8643 82.9783 93.8938H1"
        stroke="white" stroke-width="10" />
    <path
        d="M5.16064 47.3466V88.173L25.9639 68.6699H100.856C111.881 64.0932 114.118 55.6679 113.858 52.0273V11.4609L89.4139 31.224H23.6235C10.3095 32.2642 5.76741 42.4058 5.16064 47.3466Z"
        stroke="white" stroke-width="10" />
    <path
        d="M146.848 32.7223C146.734 31.5765 146.247 30.6864 145.385 30.0519C144.523 29.4174 143.354 29.1002 141.877 29.1002C140.873 29.1002 140.025 29.2422 139.334 29.5263C138.643 29.8009 138.112 30.1845 137.743 30.6769C137.383 31.1693 137.203 31.728 137.203 32.353C137.184 32.8739 137.293 33.3284 137.53 33.7167C137.776 34.1049 138.112 34.4411 138.538 34.7252C138.965 34.9998 139.457 35.2413 140.016 35.4496C140.574 35.6485 141.171 35.8189 141.805 35.961L144.419 36.586C145.688 36.8701 146.853 37.2489 147.913 37.7223C148.974 38.1958 149.893 38.7782 150.669 39.4695C151.446 40.1608 152.047 40.9752 152.473 41.9127C152.909 42.8502 153.131 43.925 153.141 45.1371C153.131 46.9174 152.677 48.461 151.777 49.7678C150.887 51.0651 149.599 52.0737 147.913 52.7934C146.237 53.5036 144.216 53.8587 141.848 53.8587C139.5 53.8587 137.454 53.4989 135.712 52.7792C133.979 52.0595 132.625 50.9941 131.649 49.5831C130.683 48.1627 130.177 46.4061 130.129 44.3133H136.081C136.147 45.2886 136.427 46.103 136.919 46.7564C137.421 47.4004 138.089 47.8881 138.922 48.2195C139.765 48.5415 140.716 48.7025 141.777 48.7025C142.819 48.7025 143.723 48.5509 144.49 48.2479C145.267 47.9449 145.868 47.5235 146.294 46.9837C146.72 46.4439 146.933 45.8237 146.933 45.1229C146.933 44.4695 146.739 43.9203 146.351 43.4752C145.972 43.0301 145.413 42.6513 144.675 42.3388C143.946 42.0263 143.051 41.7422 141.99 41.4865L138.823 40.6911C136.37 40.0945 134.433 39.1617 133.013 37.8928C131.592 36.6239 130.887 34.9146 130.896 32.765C130.887 31.0036 131.356 29.4648 132.303 28.1485C133.259 26.8322 134.571 25.8047 136.237 25.0661C137.904 24.3275 139.798 23.9581 141.919 23.9581C144.078 23.9581 145.963 24.3275 147.573 25.0661C149.192 25.8047 150.451 26.8322 151.351 28.1485C152.251 29.4648 152.715 30.9894 152.743 32.7223H146.848ZM171.55 53.4468H164.959L175.002 24.3559H182.928L192.956 53.4468H186.365L179.078 31.0036H178.851L171.55 53.4468ZM171.138 42.0121H186.706V46.8133H171.138V42.0121ZM205.715 53.4468V24.3559H211.866V36.3587H224.352V24.3559H230.488V53.4468H224.352V41.4297H211.866V53.4468H205.715ZM244.817 24.3559H252.402L260.413 43.9013H260.754L268.766 24.3559H276.351V53.4468H270.385V34.5121H270.144L262.615 53.3047H258.553L251.024 34.4411H250.783V53.4468H244.817V24.3559Z"
        fill="white" />
    <path
        d="M150.578 88.4468V85.6068H154.898V88.4468H150.578ZM131.138 101.727C130.872 100.207 130.632 98.7668 130.418 97.4068C130.232 96.0468 130.138 94.8868 130.138 93.9268C130.138 92.1934 130.432 90.7001 131.018 89.4468C131.632 88.2201 132.498 87.2734 133.618 86.6068C134.765 85.9401 136.125 85.6068 137.698 85.6068C138.152 85.6068 138.818 85.6068 139.698 85.6068C140.578 85.6068 141.592 85.6068 142.738 85.6068C143.885 85.6068 145.072 85.6068 146.298 85.6068C147.525 85.6068 148.685 85.6068 149.778 85.6068L147.458 87.6468V78.6468C147.458 76.7801 147.245 75.3134 146.818 74.2468C146.392 73.1801 145.658 72.4201 144.618 71.9668C143.605 71.5134 142.218 71.2868 140.458 71.2868C139.338 71.2868 138.218 71.3668 137.098 71.5268C136.005 71.6868 135.152 71.9001 134.538 72.1668L136.418 70.2468C136.258 70.8868 136.098 71.7001 135.938 72.6868C135.778 73.6468 135.645 74.6868 135.538 75.8068C135.458 76.9268 135.418 78.0468 135.418 79.1668C135.418 80.3134 135.458 81.4334 135.538 82.5268C135.645 83.6201 135.765 84.5668 135.898 85.3668C136.032 86.1668 136.138 86.7268 136.218 87.0468L133.258 87.8868C133.152 87.5401 133.018 86.9401 132.858 86.0868C132.725 85.2334 132.592 84.2068 132.458 83.0068C132.352 81.8068 132.298 80.5268 132.298 79.1668C132.298 77.8601 132.352 76.5934 132.458 75.3668C132.592 74.1134 132.738 72.9801 132.898 71.9668C133.085 70.9534 133.258 70.1401 133.418 69.5268C134.005 69.2868 134.938 69.0468 136.218 68.8068C137.498 68.5668 138.912 68.4468 140.458 68.4468C141.792 68.4468 142.992 68.5668 144.058 68.8068C145.152 69.0201 146.098 69.3801 146.898 69.8868C147.725 70.3934 148.405 71.0468 148.938 71.8468C149.498 72.6201 149.912 73.5801 150.178 74.7268C150.445 75.8468 150.578 77.1534 150.578 78.6468V88.4468C149.458 88.4468 148.245 88.4468 146.938 88.4468C145.658 88.4468 144.392 88.4468 143.138 88.4468C141.912 88.4468 140.805 88.4468 139.818 88.4468C138.858 88.4468 138.152 88.4468 137.698 88.4468C137.272 88.4468 136.805 88.5001 136.298 88.6068C135.792 88.7401 135.298 88.9801 134.818 89.3268C134.365 89.7001 133.992 90.2468 133.698 90.9668C133.405 91.7134 133.258 92.7001 133.258 93.9268C133.258 94.9401 133.352 96.1001 133.538 97.4068C133.725 98.7134 133.938 100.153 134.178 101.727H131.138ZM154.898 88.4468V85.6068C155.245 85.6068 155.458 85.7401 155.538 86.0068C155.645 86.2468 155.698 86.5801 155.698 87.0068C155.698 87.4334 155.645 87.7801 155.538 88.0468C155.458 88.3134 155.245 88.4468 154.898 88.4468ZM156.106 88.4468V85.6068H178.186L175.106 88.4468V78.6468C175.106 76.8068 174.892 75.3534 174.466 74.2868C174.039 73.2201 173.319 72.4601 172.306 72.0068C171.292 71.5268 169.919 71.2868 168.186 71.2868C166.986 71.2868 165.839 71.3668 164.746 71.5268C163.652 71.6868 162.786 71.9001 162.146 72.1668L164.026 70.2468C163.866 70.8868 163.706 71.7001 163.546 72.6868C163.412 73.6468 163.292 74.7001 163.186 75.8468C163.079 76.9668 163.026 78.0868 163.026 79.2068C163.026 80.3534 163.079 81.4734 163.186 82.5668C163.292 83.6334 163.412 84.5668 163.546 85.3668C163.679 86.1668 163.786 86.7268 163.866 87.0468L160.906 87.8868C160.799 87.5401 160.666 86.9401 160.506 86.0868C160.346 85.2068 160.199 84.1801 160.066 83.0068C159.959 81.8068 159.906 80.5401 159.906 79.2068C159.906 77.2068 160.039 75.3268 160.306 73.5668C160.572 71.7801 160.812 70.4334 161.026 69.5268C161.612 69.2868 162.546 69.0468 163.826 68.8068C165.106 68.5668 166.532 68.4468 168.106 68.4468C171.466 68.4468 173.986 69.2201 175.666 70.7668C177.346 72.2868 178.186 74.9134 178.186 78.6468V88.4468H156.106ZM168.066 98.3268C166.519 98.3268 165.106 98.2468 163.826 98.0868C162.546 97.9534 161.612 97.8068 161.026 97.6468C160.812 97.0601 160.572 96.2068 160.306 95.0868C160.039 93.9668 159.906 92.7668 159.906 91.4868C159.906 90.2334 160.026 89.1001 160.266 88.0868C160.532 87.0468 160.746 86.3534 160.906 86.0068L163.706 87.1668C163.626 87.3801 163.532 87.7401 163.426 88.2468C163.319 88.7534 163.226 89.3001 163.146 89.8868C163.066 90.5001 163.026 91.0601 163.026 91.5668C163.026 92.1001 163.066 92.6734 163.146 93.2868C163.226 93.9001 163.332 94.5001 163.466 95.0868C163.626 95.6734 163.786 96.1934 163.946 96.6468L161.866 94.8868C162.479 95.0734 163.372 95.2201 164.546 95.3268C165.746 95.4334 166.959 95.4868 168.186 95.4868C170.026 95.4868 171.439 95.3668 172.426 95.1268C173.439 94.8868 174.132 94.5001 174.506 93.9668C174.906 93.4334 175.106 92.7268 175.106 91.8468V85.6068H178.186V91.8468C178.186 94.2201 177.346 95.8868 175.666 96.8468C173.986 97.8334 171.452 98.3268 168.066 98.3268ZM178.186 88.4468V85.6068H182.506V88.4468H178.186ZM182.506 88.4468V85.6068C182.852 85.6068 183.066 85.7401 183.146 86.0068C183.252 86.2468 183.306 86.5801 183.306 87.0068C183.306 87.4334 183.252 87.7801 183.146 88.0468C183.066 88.3134 182.852 88.4468 182.506 88.4468ZM156.106 88.4468C155.759 88.4468 155.546 88.3134 155.466 88.0468C155.359 87.7801 155.306 87.4334 155.306 87.0068C155.306 86.5801 155.359 86.2468 155.466 86.0068C155.546 85.7401 155.759 85.6068 156.106 85.6068V88.4468ZM204.752 88.4468C203.845 88.4468 202.952 88.2734 202.072 87.9268C201.219 87.5801 200.392 87.0334 199.592 86.2868L201.632 84.1668C202.245 84.6734 202.792 85.0468 203.272 85.2868C203.752 85.5001 204.245 85.6068 204.752 85.6068H211.872L210.672 86.8868V77.3268C210.672 76.8468 210.619 76.1668 210.512 75.2868C210.432 74.4068 210.299 73.4201 210.112 72.3268C209.952 71.2068 209.752 70.0868 209.512 68.9668L212.552 68.4468C212.739 69.3801 212.925 70.4201 213.112 71.5668C213.299 72.7134 213.459 73.8068 213.592 74.8468C213.725 75.8601 213.792 76.6868 213.792 77.3268V88.4468H204.752ZM183.712 88.4468V85.6068H189.552L188.752 86.4068V72.4468H191.832V88.4468H183.712ZM191.832 88.4468V85.6068H196.352C197.259 85.6068 197.939 85.4734 198.392 85.2068C198.872 84.9401 199.205 84.4068 199.392 83.6068C199.579 82.8068 199.672 81.6334 199.672 80.0868V70.4468H202.792V80.0868C202.792 82.1668 202.565 83.8201 202.112 85.0468C201.685 86.2734 201.005 87.1534 200.072 87.6868C199.139 88.1934 197.899 88.4468 196.352 88.4468H191.832ZM183.712 88.4468C183.365 88.4468 183.152 88.3134 183.072 88.0468C182.965 87.7801 182.912 87.4334 182.912 87.0068C182.912 86.5801 182.965 86.2468 183.072 86.0068C183.152 85.7401 183.365 85.6068 183.712 85.6068V88.4468Z"
        fill="white" />
</svg>
    